<svg width="66" height="66" viewBox="0 0 66 66" fill="none" xmlns="http://www.w3.org/2000/svg">
<path d="M65 65L56.75 56.875M65 65V56.875M65 65H56.75M65 0V32.5M0 65H32M32 65H32.5H40.25M32 65L40.25 56.875M65 32.5L56.75 40.625M65 32.5V40.625M48.5 48.75L48.75 65M48.5 48.75H64.7671M48.5 48.75L56.75 40.625M48.5 48.75L40.25 56.875M48.5 48.75L56.75 56.875M48.75 65L40.25 56.875M48.75 65L56.75 56.875M48.75 65H56.75M48.75 65H40.25M64.7671 48.75L56.75 40.625M64.7671 48.75L56.75 56.875M56.75 40.625H65M56.75 40.625V65M40.25 56.875H56.75M40.25 56.875V65M56.75 56.875H65M65 40.625V56.875" stroke="#412800"/>
</svg>
