<svg width="18" height="13" viewBox="0 0 18 13" fill="none" xmlns="http://www.w3.org/2000/svg">
<path d="M14.6 0.800049H3.40001C1.86001 0.800049 0.600006 1.99005 0.600006 3.44449V10.0556C0.600006 11.51 1.86001 12.7 3.40001 12.7H14.6C16.14 12.7 17.4 11.51 17.4 10.0556V3.44449C17.4 1.99005 16.14 0.800049 14.6 0.800049ZM15.72 4.63449L10.19 8.13838C9.84001 8.33672 9.42001 8.46894 9.00001 8.46894C8.58001 8.46894 8.16001 8.33672 7.81001 8.13838L2.28001 4.63449C2.00001 4.43616 1.93001 4.03949 2.14001 3.70894C2.35001 3.44449 2.77001 3.37838 3.12001 3.57672L8.65001 7.0806C8.86001 7.21283 9.21001 7.21283 9.42001 7.0806L14.95 3.57672C15.3 3.37838 15.72 3.44449 15.93 3.77505C16.07 4.03949 16 4.43616 15.72 4.63449Z" fill="#4B2E00"/>
</svg>
