<svg width="35" height="35" viewBox="0 0 35 35" fill="none" xmlns="http://www.w3.org/2000/svg">
<path fill-rule="evenodd" clip-rule="evenodd" d="M30.7238 0C33.084 0 35 1.89599 35 4.23126V30.4013C35 32.7365 33.0838 34.6326 30.7238 34.6326H23.4458V21.5834H27.9985L28.8648 15.9948H23.4458V12.3681C23.4458 10.8392 24.2026 9.34883 26.63 9.34883H29.0938V4.59091C29.0938 4.59091 26.8577 4.21334 24.7199 4.21334C20.2569 4.21334 17.3398 6.88985 17.3398 11.7354V15.9948H12.3789V21.5834H17.3398V34.6326H4.27615C1.91611 34.6326 0 32.7365 0 30.4013V4.23126C0 1.89599 1.91604 0 4.27615 0H30.7238Z" fill="#4B2E00"/>
</svg>
