<svg width="20" height="20" viewBox="0 0 20 20" fill="none" xmlns="http://www.w3.org/2000/svg">
<path d="M18.125 10.625H14.75C13.625 10.625 12.75 9.6875 12.75 8.5625C12.75 8.375 12.75 8.125 12.0625 8.125H7.9375C7.25 8.125 7.25 8.375 7.25 8.5625C7.25 9.6875 6.375 10.625 5.25 10.625H1.875C1.5 10.625 1.25 10.375 1.25 10C1.25 6.875 3.6875 4.375 6.625 4.375H13.375C16.3125 4.375 18.75 6.875 18.75 10C18.75 10.375 18.5 10.625 18.125 10.625Z" fill="#412800"/>
<path d="M14.75 11.875C13.25 11.875 11.9375 10.8125 11.5625 9.375H8.3125C7.9375 10.8125 6.6875 11.875 5.125 11.875H4.5C3.8125 13.375 3.125 15.25 3.125 16.875C3.125 17.25 3.375 17.5 3.75 17.5H16.25C16.625 17.5 16.875 17.25 16.875 16.875C16.875 15.25 16.1875 13.375 15.4375 11.875H14.75ZM10 15.625C8.625 15.625 7.5 14.5 7.5 13.125C7.5 11.75 8.625 10.625 10 10.625C11.375 10.625 12.5 11.75 12.5 13.125C12.5 14.5 11.375 15.625 10 15.625Z" fill="#412800"/>
<path d="M14.375 18.75C14 18.75 13.75 18.5 13.75 18.125V16.875C13.75 16.5 14 16.25 14.375 16.25C14.75 16.25 15 16.5 15 16.875V18.125C15 18.5 14.75 18.75 14.375 18.75Z" fill="#412800"/>
<path d="M5.625 18.75C5.25 18.75 5 18.5 5 18.125V16.875C5 16.5 5.25 16.25 5.625 16.25C6 16.25 6.25 16.5 6.25 16.875V18.125C6.25 18.5 6 18.75 5.625 18.75Z" fill="#412800"/>
</svg>
